<svg xmlns="http://www.w3.org/2000/svg" height="20" fill="currentColor" viewBox="0 0 84 24"><path d="M0 23.742h9.336c5.583 0 8.112-2.758 8.112-6.403 0-3.662-2.546-5.823-4.912-5.968v-.032c2.17-.549 3.917-2.113 3.917-5.065 0-3.5-2.465-6.274-7.59-6.274H0v23.742Zm3.689-3.13v-7.531H9.14c2.922 0 4.701 1.838 4.701 4.064 0 1.984-1.37 3.468-4.831 3.468H3.689Zm0-10.418v-7.13h5.027c2.905 0 4.228 1.5 4.228 3.404 0 2.274-1.861 3.726-4.293 3.726H3.689Zm27.361 6.354c0 3.097-1.828 4.452-4.162 4.452-2.383 0-3.933-1.42-3.933-4.129V6.71h-3.51v10.58c0 4.404 2.906 6.71 6.448 6.71 2.71 0 4.423-1.355 5.19-3.129h.065v2.87h3.395V6.71h-3.492v9.838ZM43.907 24c3.901 0 6.855-2.177 7.508-5.484h-3.362c-.49 1.597-2.171 2.645-4.13 2.645-2.889 0-4.619-2.258-4.619-5.032h12.323v-.887c0-5.21-2.921-8.79-7.802-8.79-4.88 0-8.047 3.613-8.047 8.806 0 5.194 3.183 8.742 8.129 8.742ZM39.32 13.597c.147-2.274 1.812-4.323 4.473-4.323 2.48 0 4.342 1.758 4.423 4.323H39.32Zm17.052.306c0-3.097 1.828-4.451 4.146-4.451 2.399 0 3.95 1.419 3.95 4.129v10.16h3.493v-10.58c0-4.403-2.89-6.71-6.448-6.71-2.693 0-4.407 1.355-5.174 3.13h-.065V6.71h-3.412v17.032h3.51v-9.839Zm18.993 10.081c2.955 0 4.407-1.274 5.158-2.661h.066v2.419H84V12.064c0-3.322-2.66-5.612-6.904-5.612-4.342 0-7.117 2.387-7.28 5.516h3.525c.147-1.549 1.568-2.678 3.722-2.678 2.17 0 3.444 1.13 3.444 2.775v.08c0 1.242-1.077 1.21-4.31 1.597-3.508.403-6.806 1.258-6.806 5.129 0 3.403 2.547 5.113 5.974 5.113Zm.751-2.758c-1.991 0-3.215-.839-3.231-2.29-.017-1.71 1.68-2.388 3.541-2.646 1.812-.242 3.624-.532 4.097-.887v1.968c0 2.08-1.42 3.855-4.407 3.855Z"></path></svg>
