<svg xmlns="http://www.w3.org/2000/svg" width="900" height="620" viewBox="0 0 900 620">
  <defs><linearGradient id="g" x1="0" y1="0" x2="1" y2="1"><stop stop-color="#b8c4cd"/><stop offset="1" stop-color="#53636c"/></linearGradient></defs>
  <rect width="900" height="620" fill="url(#g)"/>
  <rect y="462" width="900" height="158" fill="#2d3834"/>
  <rect x="150" y="146" width="600" height="444" fill="#b2aa9e"/>
  <rect x="150" y="146" width="600" height="38" fill="#46494a"/>
  <g fill="#2d4351">
    <rect x="210" y="220" width="64" height="60" rx="4"/><rect x="336" y="220" width="64" height="60" rx="4"/><rect x="462" y="220" width="64" height="60" rx="4"/><rect x="588" y="220" width="64" height="60" rx="4"/>
    <rect x="210" y="328" width="64" height="60" rx="4"/><rect x="336" y="328" width="64" height="60" rx="4"/><rect x="462" y="328" width="64" height="60" rx="4"/><rect x="588" y="328" width="64" height="60" rx="4"/>
  </g>
  <rect x="404" y="480" width="92" height="110" rx="6" fill="#3b332e"/>
</svg>
