<svg xmlns="http://www.w3.org/2000/svg" width="900" height="620" viewBox="0 0 900 620">
  <defs>
    <linearGradient id="sky" x1="0" y1="0" x2="1" y2="1"><stop stop-color="#c9d6df"/><stop offset="1" stop-color="#52616b"/></linearGradient>
    <linearGradient id="wall" x1="0" y1="0" x2="1" y2="1"><stop stop-color="#ded7ca"/><stop offset="1" stop-color="#9f9688"/></linearGradient>
  </defs>
  <rect width="900" height="620" fill="url(#sky)"/>
  <rect y="438" width="900" height="182" fill="#2f3b35"/>
  <path d="M170 420h560v170H170z" fill="#30343b"/>
  <path d="M214 116h472v474H214z" fill="url(#wall)"/>
  <path d="M190 116h520l-42-62H232z" fill="#5a5149"/>
  <g fill="#2f4657">
    <rect x="258" y="166" width="54" height="70" rx="4"/><rect x="356" y="166" width="54" height="70" rx="4"/><rect x="454" y="166" width="54" height="70" rx="4"/><rect x="552" y="166" width="54" height="70" rx="4"/>
    <rect x="258" y="276" width="54" height="70" rx="4"/><rect x="356" y="276" width="54" height="70" rx="4"/><rect x="454" y="276" width="54" height="70" rx="4"/><rect x="552" y="276" width="54" height="70" rx="4"/>
    <rect x="258" y="386" width="54" height="70" rx="4"/><rect x="356" y="386" width="54" height="70" rx="4"/><rect x="454" y="386" width="54" height="70" rx="4"/><rect x="552" y="386" width="54" height="70" rx="4"/>
  </g>
  <rect x="405" y="468" width="90" height="122" rx="6" fill="#4a3529"/>
  <circle cx="466" cy="531" r="4" fill="#d8c8a8"/>
</svg>
