<svg xmlns="http://www.w3.org/2000/svg" width="900" height="620" viewBox="0 0 900 620">
  <defs>
    <linearGradient id="sky" x1="0" y1="0" x2="1" y2="0"><stop stop-color="#bec7c0"/><stop offset="1" stop-color="#5c675f"/></linearGradient>
    <linearGradient id="wall" x1="0" y1="0" x2="1" y2="1"><stop stop-color="#d4c1aa"/><stop offset="1" stop-color="#8f765f"/></linearGradient>
  </defs>
  <rect width="900" height="620" fill="url(#sky)"/>
  <rect y="450" width="900" height="170" fill="#26342e"/>
  <path d="M260 92h380v498H260z" fill="url(#wall)"/>
  <path d="M238 92h424l-34-48H272z" fill="#4a403a"/>
  <g fill="#243c4c">
    <rect x="305" y="152" width="58" height="72" rx="5"/><rect x="421" y="152" width="58" height="72" rx="5"/><rect x="537" y="152" width="58" height="72" rx="5"/>
    <rect x="305" y="270" width="58" height="72" rx="5"/><rect x="421" y="270" width="58" height="72" rx="5"/><rect x="537" y="270" width="58" height="72" rx="5"/>
    <rect x="305" y="388" width="58" height="72" rx="5"/><rect x="421" y="388" width="58" height="72" rx="5"/><rect x="537" y="388" width="58" height="72" rx="5"/>
  </g>
  <rect x="405" y="492" width="90" height="98" rx="6" fill="#423129"/>
</svg>
